<svg 
 xmlns="http://www.w3.org/2000/svg"
 xmlns:xlink="http://www.w3.org/1999/xlink"
 width="295px" height="93px">
<path fill-rule="evenodd"  fill="rgb(255, 255, 255)"
 d="M294.420,25.170 L276.207,25.170 C276.305,27.839 277.143,29.711 278.722,30.785 C279.682,31.453 280.837,31.786 282.188,31.786 C283.621,31.786 284.784,31.379 285.680,30.565 C286.168,30.126 286.599,29.516 286.974,28.734 L294.078,28.734 C293.899,30.313 293.077,31.917 291.612,33.544 C289.333,36.132 286.144,37.426 282.042,37.426 C278.656,37.426 275.670,36.336 273.082,34.154 C270.494,31.973 269.200,28.425 269.200,23.510 C269.200,18.904 270.368,15.372 272.704,12.914 C275.039,10.457 278.070,9.228 281.798,9.228 C284.011,9.228 286.005,9.643 287.779,10.473 C289.553,11.303 291.018,12.613 292.174,14.403 C293.215,15.982 293.891,17.813 294.200,19.896 C294.379,21.117 294.452,22.875 294.420,25.170 ZM285.521,16.393 C284.520,15.441 283.279,14.965 281.798,14.965 C280.187,14.965 278.937,15.470 278.050,16.479 C277.163,17.488 276.606,18.855 276.378,20.580 L287.193,20.580 C287.079,18.741 286.522,17.345 285.521,16.393 ZM257.555,0.561 L264.513,0.561 L264.513,36.547 L257.555,36.547 L257.555,0.561 ZM241.319,37.255 C239.122,37.255 237.356,36.815 236.021,35.937 C235.224,35.416 234.361,34.504 233.434,33.202 L233.434,36.547 L226.622,36.547 L226.622,0.609 L233.556,0.609 L233.556,13.402 C234.435,12.166 235.403,11.221 236.461,10.570 C237.714,9.757 239.309,9.350 241.246,9.350 C244.745,9.350 247.484,10.611 249.461,13.134 C251.439,15.657 252.428,18.912 252.428,22.899 C252.428,27.034 251.451,30.460 249.498,33.178 C247.545,35.896 244.819,37.255 241.319,37.255 ZM244.396,18.944 C243.468,16.601 241.759,15.429 239.269,15.429 C236.746,15.429 235.012,16.576 234.068,18.871 C233.580,20.092 233.336,21.671 233.336,23.607 C233.336,25.886 233.840,27.774 234.850,29.271 C235.859,30.769 237.397,31.518 239.464,31.518 C241.254,31.518 242.646,30.794 243.639,29.345 C244.631,27.896 245.128,25.992 245.128,23.632 C245.128,21.744 244.884,20.181 244.396,18.944 ZM212.730,92.436 C209.329,92.436 206.554,91.768 204.405,90.434 C202.257,89.099 201.069,87.105 200.841,84.452 L208.409,84.452 C208.604,85.266 208.922,85.852 209.361,86.210 C210.110,86.845 211.371,87.162 213.146,87.162 C215.652,87.162 217.328,86.324 218.175,84.647 C218.728,83.573 219.005,81.767 219.005,79.228 L219.005,77.519 C218.337,78.658 217.621,79.512 216.856,80.082 C215.473,81.140 213.674,81.669 211.461,81.669 C208.043,81.669 205.312,80.469 203.270,78.068 C201.227,75.667 200.206,72.416 200.206,68.314 C200.206,64.359 201.191,61.035 203.160,58.341 C205.129,55.648 207.921,54.301 211.534,54.301 C212.869,54.301 214.032,54.504 215.025,54.911 C216.718,55.611 218.085,56.897 219.127,58.769 L219.127,54.936 L225.890,54.936 L225.890,80.180 C225.890,83.614 225.312,86.202 224.156,87.943 C222.170,90.938 218.362,92.436 212.730,92.436 ZM217.479,62.357 C216.413,61.039 214.985,60.380 213.194,60.380 C210.753,60.380 209.068,61.527 208.141,63.822 C207.652,65.043 207.408,66.549 207.408,68.339 C207.408,69.885 207.668,71.261 208.189,72.465 C209.133,74.711 210.826,75.834 213.268,75.834 C214.895,75.834 216.271,75.220 217.394,73.991 C218.517,72.762 219.078,70.805 219.078,68.119 C219.078,65.596 218.545,63.676 217.479,62.357 ZM213.072,9.936 L220.128,9.936 L220.128,36.547 L213.072,36.547 L213.072,9.936 ZM213.072,0.341 L220.128,0.341 L220.128,6.762 L213.072,6.762 L213.072,0.341 ZM199.547,20.531 C202.314,21.182 204.389,22.167 205.772,23.485 C207.140,24.820 207.823,26.488 207.823,28.490 C207.823,31.127 206.842,33.280 204.881,34.948 C202.920,36.616 199.889,37.450 195.787,37.450 C191.604,37.450 188.516,36.567 186.522,34.801 C184.528,33.035 183.531,30.785 183.531,28.051 L190.587,28.051 C190.733,29.288 191.051,30.167 191.539,30.688 C192.402,31.615 193.996,32.079 196.324,32.079 C197.691,32.079 198.778,31.876 199.583,31.469 C200.389,31.062 200.792,30.452 200.792,29.638 C200.792,28.856 200.466,28.262 199.815,27.855 C199.164,27.449 196.747,26.749 192.564,25.756 C189.553,25.007 187.429,24.071 186.192,22.948 C184.955,21.842 184.337,20.247 184.337,18.163 C184.337,15.706 185.301,13.594 187.230,11.828 C189.159,10.062 191.872,9.179 195.372,9.179 C198.692,9.179 201.402,9.838 203.502,11.156 C205.585,12.491 206.781,14.786 207.091,18.041 L200.133,18.041 C200.035,17.146 199.783,16.438 199.376,15.917 C198.611,14.973 197.309,14.501 195.470,14.501 C193.956,14.501 192.878,14.737 192.235,15.209 C191.592,15.681 191.271,16.234 191.271,16.869 C191.271,17.667 191.612,18.245 192.296,18.603 C192.979,18.977 195.396,19.620 199.547,20.531 ZM192.796,56.461 C194.546,57.902 195.421,60.291 195.421,63.627 L195.421,81.547 L188.292,81.547 L188.292,65.360 C188.292,63.961 188.105,62.887 187.730,62.138 C187.047,60.771 185.745,60.087 183.824,60.087 C181.464,60.087 179.845,61.088 178.966,63.090 C178.510,64.148 178.282,65.499 178.282,67.143 L178.282,81.547 L171.349,81.547 L171.349,54.984 L178.062,54.984 L178.062,58.866 C178.957,57.499 179.804,56.514 180.602,55.912 C182.034,54.838 183.849,54.301 186.046,54.301 C188.796,54.301 191.047,55.021 192.796,56.461 ZM171.617,20.360 C171.617,18.961 171.430,17.887 171.056,17.138 C170.372,15.771 169.070,15.087 167.149,15.087 C164.789,15.087 163.170,16.088 162.291,18.090 C161.835,19.148 161.607,20.499 161.607,22.143 L161.607,36.547 L154.674,36.547 L154.674,9.984 L161.388,9.984 L161.388,13.866 C162.283,12.499 163.129,11.514 163.927,10.912 C165.359,9.838 167.174,9.301 169.371,9.301 C172.121,9.301 174.372,10.021 176.122,11.461 C177.871,12.902 178.746,15.291 178.746,18.627 L178.746,36.547 L171.617,36.547 L171.617,20.360 ZM143.663,45.561 L150.621,45.561 L150.621,81.547 L143.663,81.547 L143.663,45.561 ZM136.046,37.475 C131.472,37.475 128.062,36.087 125.816,33.312 C123.570,30.537 122.447,27.196 122.447,23.290 C122.447,19.449 123.570,16.121 125.816,13.305 C128.062,10.489 131.472,9.081 136.046,9.081 C140.619,9.081 144.029,10.489 146.275,13.305 C148.521,16.121 149.645,19.449 149.645,23.290 C149.645,27.196 148.521,30.537 146.275,33.312 C144.029,36.087 140.619,37.475 136.046,37.475 ZM140.709,17.125 C139.618,15.685 138.056,14.965 136.021,14.965 C133.987,14.965 132.420,15.685 131.322,17.125 C130.223,18.566 129.674,20.621 129.674,23.290 C129.674,25.960 130.223,28.018 131.322,29.467 C132.420,30.916 133.987,31.640 136.021,31.640 C138.056,31.640 139.618,30.916 140.709,29.467 C141.799,28.018 142.345,25.960 142.345,23.290 C142.345,20.621 141.799,18.566 140.709,17.125 ZM127.354,54.350 C130.854,54.350 133.592,55.611 135.570,58.134 C137.547,60.657 138.536,63.912 138.536,67.899 C138.536,72.034 137.560,75.460 135.606,78.178 C133.653,80.896 130.927,82.255 127.428,82.255 C125.230,82.255 123.464,81.815 122.130,80.937 C121.332,80.416 120.470,79.504 119.542,78.202 L119.542,81.547 L112.730,81.547 L112.730,45.609 L119.664,45.609 L119.664,58.402 C120.543,57.166 121.511,56.221 122.569,55.570 C123.822,54.757 125.417,54.350 127.354,54.350 ZM119.444,68.607 C119.444,70.886 119.949,72.774 120.958,74.271 C121.967,75.769 123.505,76.518 125.572,76.518 C127.363,76.518 128.754,75.794 129.747,74.345 C130.740,72.896 131.236,70.992 131.236,68.632 C131.236,66.744 130.992,65.181 130.504,63.944 C129.576,61.601 127.867,60.429 125.377,60.429 C122.854,60.429 121.121,61.576 120.177,63.871 C119.688,65.092 119.444,66.671 119.444,68.607 ZM107.750,37.304 C105.634,37.304 103.876,36.775 102.477,35.717 C101.711,35.131 100.963,34.276 100.230,33.153 L100.230,47.021 L93.346,47.021 L93.346,9.936 L100.011,9.936 L100.011,13.866 C100.759,12.711 101.557,11.799 102.403,11.132 C103.949,9.944 105.788,9.350 107.921,9.350 C111.029,9.350 113.666,10.497 115.831,12.792 C117.979,15.087 119.054,18.456 119.054,22.899 C119.054,27.587 117.1000,31.160 115.892,33.617 C113.784,36.075 111.070,37.304 107.750,37.304 ZM110.472,17.797 C109.536,16.218 108.019,15.429 105.919,15.429 C103.396,15.429 101.663,16.625 100.719,19.018 C100.230,20.287 99.986,21.898 99.986,23.852 C99.986,26.944 100.808,29.117 102.452,30.370 C103.429,31.103 104.584,31.469 105.919,31.469 C107.856,31.469 109.333,30.720 110.350,29.223 C111.367,27.725 111.876,25.731 111.876,23.241 C111.876,21.190 111.408,19.376 110.472,17.797 ZM98.253,54.350 C99.425,54.350 100.580,54.578 101.720,55.033 C102.859,55.489 103.893,56.287 104.820,57.426 C105.569,58.354 106.073,59.493 106.334,60.844 C106.496,61.739 106.578,63.049 106.578,64.774 L106.529,81.547 L99.400,81.547 L99.400,64.604 C99.400,63.595 99.238,62.764 98.912,62.113 C98.293,60.877 97.154,60.258 95.494,60.258 C93.573,60.258 92.247,61.055 91.515,62.650 C91.140,63.497 90.953,64.514 90.953,65.702 L90.953,81.547 L83.946,81.547 L83.946,65.702 C83.946,64.124 83.783,62.976 83.458,62.260 C82.872,60.974 81.725,60.331 80.016,60.331 C78.030,60.331 76.695,60.974 76.012,62.260 C75.637,62.992 75.450,64.083 75.450,65.531 L75.450,81.547 L68.395,81.547 L68.395,54.984 L75.157,54.984 L75.157,58.866 C76.020,57.483 76.833,56.498 77.599,55.912 C78.949,54.871 80.699,54.350 82.848,54.350 C84.882,54.350 86.526,54.797 87.779,55.692 C88.788,56.522 89.553,57.589 90.074,58.891 C90.986,57.328 92.117,56.181 93.468,55.448 C94.900,54.716 96.495,54.350 98.253,54.350 ZM80.113,20.531 C82.880,21.182 84.955,22.167 86.339,23.485 C87.706,24.820 88.390,26.488 88.390,28.490 C88.390,31.127 87.409,33.280 85.448,34.948 C83.486,36.616 80.455,37.450 76.354,37.450 C72.170,37.450 69.082,36.567 67.088,34.801 C65.094,33.035 64.098,30.785 64.098,28.051 L71.153,28.051 C71.300,29.288 71.617,30.167 72.105,30.688 C72.968,31.615 74.563,32.079 76.891,32.079 C78.258,32.079 79.344,31.876 80.150,31.469 C80.956,31.062 81.358,30.452 81.358,29.638 C81.358,28.856 81.033,28.262 80.382,27.855 C79.731,27.449 77.314,26.749 73.131,25.756 C70.120,25.007 67.996,24.071 66.759,22.948 C65.522,21.842 64.903,20.247 64.903,18.163 C64.903,15.706 65.868,13.594 67.796,11.828 C69.725,10.062 72.439,9.179 75.938,9.179 C79.259,9.179 81.969,9.838 84.068,11.156 C86.152,12.491 87.348,14.786 87.657,18.041 L80.699,18.041 C80.602,17.146 80.349,16.438 79.942,15.917 C79.177,14.973 77.875,14.501 76.036,14.501 C74.522,14.501 73.444,14.737 72.801,15.209 C72.158,15.681 71.837,16.234 71.837,16.869 C71.837,17.667 72.179,18.245 72.862,18.603 C73.546,18.977 75.963,19.620 80.113,20.531 ZM55.821,80.033 C55.740,79.561 55.675,79.024 55.626,78.422 C54.665,79.464 53.559,80.351 52.306,81.083 C50.808,81.946 49.115,82.377 47.228,82.377 C44.819,82.377 42.829,81.689 41.258,80.314 C39.687,78.939 38.902,76.990 38.902,74.467 C38.902,71.195 40.163,68.827 42.687,67.362 C44.070,66.565 46.104,65.995 48.790,65.653 L51.158,65.360 C52.444,65.198 53.363,64.994 53.917,64.750 C54.910,64.327 55.406,63.668 55.406,62.772 C55.406,61.682 55.028,60.929 54.271,60.514 C53.514,60.099 52.403,59.892 50.938,59.892 C49.294,59.892 48.131,60.299 47.447,61.112 C46.959,61.715 46.633,62.528 46.471,63.554 L39.757,63.554 C39.903,61.226 40.554,59.314 41.710,57.816 C43.549,55.473 46.706,54.301 51.183,54.301 C54.096,54.301 56.684,54.879 58.946,56.034 C61.208,57.190 62.340,59.371 62.340,62.577 L62.340,74.784 C62.340,75.631 62.356,76.656 62.389,77.860 C62.438,78.772 62.576,79.390 62.804,79.716 C63.031,80.042 63.373,80.310 63.829,80.521 L63.829,81.547 L56.261,81.547 C56.049,81.010 55.903,80.505 55.821,80.033 ZM55.382,68.607 C54.942,68.884 54.499,69.108 54.051,69.279 C53.603,69.450 52.989,69.608 52.208,69.755 L50.646,70.048 C49.181,70.308 48.131,70.626 47.496,70.1000 C46.422,71.635 45.885,72.620 45.885,73.954 C45.885,75.142 46.218,75.997 46.886,76.518 C47.537,77.055 48.334,77.323 49.278,77.323 C50.776,77.323 52.155,76.884 53.417,76.005 C54.678,75.126 55.333,73.523 55.382,71.195 L55.382,68.607 ZM42.833,25.170 C42.931,27.839 43.769,29.711 45.348,30.785 C46.308,31.453 47.463,31.786 48.814,31.786 C50.246,31.786 51.410,31.379 52.306,30.565 C52.794,30.126 53.225,29.516 53.600,28.734 L60.704,28.734 C60.525,30.313 59.703,31.917 58.238,33.544 C55.959,36.132 52.770,37.426 48.668,37.426 C45.282,37.426 42.296,36.336 39.708,34.154 C37.120,31.973 35.826,28.425 35.826,23.510 C35.826,18.904 36.994,15.372 39.330,12.914 C41.665,10.457 44.696,9.228 48.424,9.228 C50.637,9.228 52.631,9.643 54.405,10.473 C56.179,11.303 57.644,12.613 58.800,14.403 C59.841,15.982 60.517,17.813 60.826,19.896 C61.005,21.117 61.078,22.875 61.046,25.170 L42.833,25.170 ZM52.147,16.393 C51.146,15.441 49.905,14.965 48.424,14.965 C46.813,14.965 45.563,15.470 44.676,16.479 C43.789,17.488 43.232,18.855 43.004,20.580 L53.819,20.580 C53.705,18.741 53.148,17.345 52.147,16.393 ZM28.355,77.055 C26.907,78.764 25.605,79.968 24.449,80.668 C22.463,81.889 20.022,82.499 17.125,82.499 C12.356,82.499 8.450,80.847 5.406,77.543 C2.232,74.223 0.646,69.682 0.646,63.920 C0.646,58.093 2.248,53.422 5.455,49.906 C8.661,46.391 12.901,44.633 18.175,44.633 C22.748,44.633 26.423,45.792 29.198,48.112 C31.973,50.431 33.564,53.324 33.971,56.791 L26.573,56.791 C26.003,54.334 24.612,52.616 22.398,51.640 C21.161,51.103 19.786,50.834 18.272,50.834 C15.375,50.834 12.995,51.929 11.131,54.118 C9.267,56.307 8.336,59.599 8.336,63.993 C8.336,68.421 9.345,71.554 11.363,73.393 C13.381,75.232 15.676,76.151 18.248,76.151 C20.771,76.151 22.838,75.423 24.449,73.966 C26.061,72.510 27.053,70.601 27.428,68.241 L19.103,68.241 L19.103,62.235 L34.093,62.235 L34.093,81.547 L29.112,81.547 L28.355,77.055 ZM23.814,34.618 C23.619,33.609 23.513,32.576 23.497,31.518 L23.448,28.173 C23.415,25.878 22.997,24.348 22.191,23.583 C21.385,22.818 19.875,22.436 17.662,22.436 L9.898,22.436 L9.898,36.547 L2.550,36.547 L2.550,0.561 L20.201,0.561 C22.724,0.609 24.665,0.919 26.024,1.488 C27.383,2.058 28.534,2.896 29.479,4.003 C30.260,4.915 30.878,5.924 31.334,7.030 C31.789,8.137 32.018,9.398 32.018,10.814 C32.018,12.523 31.586,14.204 30.724,15.856 C29.861,17.508 28.437,18.676 26.451,19.359 C28.111,20.027 29.287,20.975 29.979,22.204 C30.671,23.433 31.017,25.308 31.017,27.831 L31.017,30.248 C31.017,31.892 31.081,33.007 31.212,33.593 C31.407,34.521 31.863,35.204 32.579,35.644 L32.579,36.547 L24.303,36.547 C24.075,35.750 23.912,35.106 23.814,34.618 ZM22.301,7.445 C21.487,7.022 20.266,6.811 18.639,6.811 L9.898,6.811 L9.898,16.479 L18.419,16.479 C20.112,16.479 21.381,16.283 22.228,15.893 C23.725,15.209 24.474,13.858 24.474,11.840 C24.474,9.659 23.749,8.194 22.301,7.445 ZM164.562,51.762 L157.506,51.762 L157.506,45.341 L164.562,45.341 L164.562,51.762 ZM164.562,81.547 L157.506,81.547 L157.506,54.936 L164.562,54.936 L164.562,81.547 Z"/>
</svg>