<svg width="47" height="24" viewBox="0 0 47 24" fill="none" xmlns="http://www.w3.org/2000/svg">
<g clip-path="url(#clip0_1180_8179)">
<path fill-rule="evenodd" clip-rule="evenodd" d="M28.0781 7.29739V14.5896H25.6481V7.29739H23.6516V5.23939H30.0754V7.29739H28.0781ZM34.0279 5.23939V12.5309H36.9416V14.5896H31.5971V5.23939H34.0271H34.0279ZM43.9204 7.63189C43.6821 7.43281 43.4144 7.2719 43.1269 7.15489C42.8823 7.05541 42.6213 7.00274 42.3574 6.99964C42.0439 6.99964 41.7874 7.07464 41.5886 7.22314C41.495 7.28838 41.4188 7.37566 41.3669 7.47729C41.315 7.57893 41.2889 7.69178 41.2909 7.80589C41.2909 7.97089 41.3411 8.10814 41.4401 8.21539C41.5391 8.32264 41.6696 8.41564 41.8301 8.49439C41.9921 8.57314 42.1736 8.64139 42.3761 8.69914C42.5786 8.75689 42.7796 8.81914 42.9776 8.88514C43.7711 9.14989 44.3524 9.50314 44.7199 9.94564C45.0874 10.3881 45.2719 10.9641 45.2719 11.6751C45.2783 12.1208 45.1962 12.5634 45.0304 12.9771C44.8691 13.3656 44.6329 13.6986 44.3231 13.9754C44.0134 14.2529 43.6331 14.4674 43.1824 14.6204C42.7324 14.7734 42.2216 14.8499 41.6509 14.8499C40.4689 14.8499 39.3731 14.4989 38.3644 13.7961L39.4069 11.8364C39.7699 12.1589 40.1299 12.3989 40.4854 12.5564C40.8409 12.7131 41.1919 12.7911 41.5391 12.7911C41.9366 12.7911 42.2314 12.7011 42.4256 12.5189C42.6206 12.3366 42.7174 12.1296 42.7174 11.8986C42.7174 11.7576 42.6926 11.6361 42.6424 11.5326C42.584 11.4191 42.4991 11.3213 42.3949 11.2476C42.2552 11.1477 42.1032 11.0663 41.9426 11.0054C41.7566 10.9311 41.5309 10.8479 41.2661 10.7579C40.9519 10.6581 40.6436 10.5486 40.3429 10.4286C40.0501 10.3143 39.7778 10.1532 39.5366 9.95164C39.2951 9.74533 39.1007 9.48956 38.9666 9.20164C38.8211 8.89939 38.7491 8.51689 38.7491 8.05414C38.7491 7.59139 38.8256 7.17139 38.9786 6.79564C39.1235 6.43152 39.3432 6.10191 39.6236 5.82814C39.9004 5.55964 40.2386 5.35039 40.6399 5.20189C41.0715 5.04778 41.5271 4.97209 41.9854 4.97839C42.4489 4.97839 42.9326 5.04289 43.4366 5.17114C43.9406 5.29864 44.4244 5.48689 44.8879 5.73514L43.9204 7.63264V7.63189Z" fill="#919EAB"/>
<path fill-rule="evenodd" clip-rule="evenodd" d="M25.7095 17.2402C25.6255 17.1701 25.5311 17.1134 25.4298 17.0722C25.3435 17.0371 25.2514 17.0185 25.1583 17.0174C25.0616 17.0131 24.9662 17.0408 24.8868 17.0962C24.8538 17.1192 24.8269 17.15 24.8086 17.1858C24.7903 17.2217 24.7811 17.2615 24.7818 17.3017C24.7818 17.3602 24.7998 17.4082 24.8343 17.4464C24.8738 17.4875 24.9206 17.5208 24.9723 17.5447C25.0293 17.5724 25.0938 17.5972 25.165 17.6167C25.2363 17.6377 25.3075 17.6594 25.3773 17.6827C25.657 17.7757 25.8625 17.9002 25.9923 18.0569C26.122 18.2129 26.1873 18.4169 26.1873 18.6674C26.1873 18.8369 26.1588 18.9899 26.1018 19.1272C26.0448 19.2644 25.9615 19.3822 25.852 19.4797C25.7425 19.5772 25.6083 19.6529 25.4493 19.7069C25.2749 19.7633 25.0925 19.7906 24.9093 19.7879C24.4931 19.7885 24.0873 19.6584 23.749 19.4159L24.1165 18.7244C24.2448 18.8384 24.3715 18.9224 24.4975 18.9779C24.6228 19.0334 24.7473 19.0612 24.8695 19.0612C25.0098 19.0612 25.114 19.0289 25.1823 18.9652C25.2312 18.9234 25.2651 18.8668 25.2789 18.804C25.2927 18.7412 25.2856 18.6756 25.2588 18.6172C25.2383 18.5772 25.2084 18.5427 25.1718 18.5167C25.1224 18.4814 25.0687 18.4527 25.012 18.4312C24.9332 18.4 24.8537 18.3708 24.7735 18.3434C24.6634 18.3086 24.5546 18.2699 24.4473 18.2272C24.3438 18.187 24.2476 18.1302 24.1623 18.0592C24.0798 17.9887 24.0123 17.9009 23.9613 17.7944C23.906 17.6668 23.8799 17.5285 23.8848 17.3894C23.8848 17.2259 23.9118 17.0782 23.9658 16.9454C24.0198 16.8127 24.0955 16.6979 24.193 16.6034C24.2905 16.5089 24.4105 16.4354 24.5523 16.3829C24.694 16.3304 24.8523 16.3042 25.027 16.3042C25.3849 16.3108 25.736 16.4023 26.0515 16.5712L25.7095 17.2402ZM28.942 17.1224H27.922V17.6737H28.885V18.4004H27.922V18.9697H28.942V19.6957H27.064V16.3957H28.942V17.1224ZM32.2743 17.4989C32.0755 17.2567 31.831 17.1352 31.5393 17.1352C31.4207 17.1344 31.3031 17.1571 31.1934 17.2019C31.0836 17.2467 30.9837 17.3127 30.8995 17.3962C30.8193 17.4786 30.7561 17.5759 30.7135 17.6827C30.6685 17.7937 30.646 17.9129 30.646 18.0412C30.646 18.1732 30.6685 18.2939 30.7135 18.4049C30.8008 18.6213 30.9701 18.7944 31.1845 18.8864C31.2925 18.9329 31.4095 18.9562 31.5348 18.9562C31.8085 18.9562 32.0553 18.8399 32.2743 18.6059V19.6214L32.1865 19.6522C32.0668 19.6956 31.9439 19.73 31.819 19.7549C31.4864 19.8227 31.141 19.7893 30.8275 19.6589C30.6219 19.5747 30.4347 19.4511 30.2763 19.2952C30.1151 19.1358 29.9853 18.9475 29.8938 18.7402C29.7959 18.519 29.7466 18.2793 29.749 18.0374C29.749 17.7832 29.7963 17.5499 29.8915 17.3392C29.986 17.1277 30.1128 16.9454 30.2718 16.7917C30.4308 16.6387 30.6153 16.5194 30.8253 16.4332C31.0353 16.3469 31.2558 16.3042 31.486 16.3042C31.6173 16.3042 31.747 16.3177 31.8738 16.3454C32.0013 16.3732 32.134 16.4159 32.2743 16.4744V17.4989ZM34.0135 16.3964V18.1904C34.0135 18.2864 34.0173 18.3854 34.0248 18.4859C34.0323 18.5864 34.0533 18.6779 34.09 18.7597C34.1267 18.8415 34.1867 18.9106 34.2625 18.9584C34.342 19.0094 34.4523 19.0349 34.5955 19.0349C34.738 19.0349 34.849 19.0094 34.9255 18.9584C35.0009 18.9099 35.0609 18.841 35.0988 18.7597C35.1363 18.6772 35.1595 18.5864 35.1663 18.4859C35.1738 18.3854 35.1775 18.2864 35.1775 18.1904V16.3949H36.031V18.3074C36.031 18.8212 35.914 19.1962 35.6785 19.4324C35.4438 19.6687 35.083 19.7872 34.5955 19.7872C34.108 19.7872 33.7465 19.6687 33.5103 19.4324C33.274 19.1962 33.1555 18.8212 33.1555 18.3074V16.3949H34.0135V16.3964ZM37.9195 17.8709H38.0815C38.2503 17.8709 38.38 17.8357 38.4715 17.7659C38.5166 17.7301 38.5524 17.6839 38.5759 17.6313C38.5994 17.5787 38.6099 17.5212 38.6065 17.4637C38.6065 17.3324 38.5615 17.2312 38.4715 17.1614C38.38 17.0917 38.2503 17.0564 38.0815 17.0564H37.9195V17.8709ZM39.8058 19.6957H38.7378L37.9195 18.4267V19.6957H37.0615V16.3957H38.3965C38.5803 16.3957 38.7408 16.4227 38.878 16.4767C39.0153 16.5307 39.1278 16.6042 39.217 16.6979C39.3063 16.7909 39.373 16.8989 39.4188 17.0219C39.4638 17.1442 39.4863 17.2754 39.4863 17.4157C39.4863 17.6669 39.4263 17.8702 39.3048 18.0262C39.1833 18.1822 39.0048 18.2887 38.7685 18.3434L39.8058 19.6957ZM42.3813 17.1224H41.3613V17.6737H42.3243V18.4004H41.3605V18.9697H42.3805V19.6957H40.5025V16.3957H42.3805V17.1224H42.3813ZM44.1948 18.9697H44.392C44.5405 18.9697 44.6733 18.9464 44.7895 18.8992C44.9065 18.8527 45.0055 18.7882 45.0858 18.7064C45.1668 18.6234 45.2294 18.5243 45.2695 18.4154C45.3115 18.3029 45.3325 18.1799 45.3325 18.0457C45.3325 17.9144 45.3108 17.7922 45.2673 17.6782C45.2261 17.5689 45.1628 17.4693 45.0813 17.3857C44.9974 17.3012 44.8967 17.2353 44.7858 17.1922C44.6602 17.144 44.5265 17.1203 44.392 17.1224H44.1948V18.9697ZM43.3368 16.3957H44.6065C44.8315 16.3957 45.0415 16.4407 45.2388 16.5314C45.4353 16.6214 45.6078 16.7422 45.7548 16.8929C45.9025 17.0429 46.0188 17.2177 46.1028 17.4179C46.1869 17.616 46.2305 17.8288 46.2309 18.044C46.2312 18.2591 46.1885 18.4721 46.105 18.6704C45.9422 19.0666 45.6334 19.385 45.2425 19.5599C45.0429 19.6509 44.8259 19.6973 44.6065 19.6957H43.3368V16.3957Z" fill="#919EAB"/>
<path fill-rule="evenodd" clip-rule="evenodd" d="M12.7867 3.47049C13.6076 4.29134 14.0687 5.40465 14.0687 6.5655V8.754H5.31474V6.5655C5.31474 5.40465 5.77589 4.29134 6.59673 3.47049C7.41758 2.64965 8.53089 2.1885 9.69174 2.1885C10.8526 2.1885 11.9659 2.64965 12.7867 3.47049ZM3.12549 8.754V6.5655C3.12549 4.82422 3.81721 3.15426 5.04848 1.92299C6.27975 0.69172 7.94971 0 9.69099 0C11.4323 0 13.1022 0.69172 14.3335 1.92299C15.5648 3.15426 16.2572 4.82422 16.2572 6.5655V8.754H16.9532C17.7775 8.754 18.4457 9.423 18.4457 10.257V14.5897C18.4457 19.4242 14.5262 23.3437 9.69174 23.3437C4.85799 23.3437 0.937744 19.4242 0.937744 14.5897V10.257C0.937744 9.42675 1.60299 8.754 2.43024 8.754H3.12549ZM15.6155 11.3406C16.2013 11.9264 16.2013 12.8761 15.6155 13.4619L9.77972 19.2977C9.49841 19.579 9.11688 19.737 8.71906 19.737C8.32123 19.737 7.9397 19.579 7.65839 19.2977L4.9839 16.6232C4.39811 16.0374 4.39811 15.0877 4.9839 14.5019C5.56968 13.9161 6.51943 13.9161 7.10522 14.5019L8.71906 16.1157L13.4941 11.3406C14.0799 10.7548 15.0297 10.7548 15.6155 11.3406Z" fill="#919EAB"/>
</g>
<defs>
<clipPath id="clip0_1180_8179">
<rect width="46.5" height="24" fill="white" transform="translate(0.395508)"/>
</clipPath>
</defs>
</svg>
